<?xml version="1.0" standalone="no"?>
<!DOCTYPE svg PUBLIC "-//W3C//DTD SVG 20010904//EN"
 "http://www.w3.org/TR/2001/REC-SVG-20010904/DTD/svg10.dtd">
<svg version="1.0" xmlns="http://www.w3.org/2000/svg"
 width="1080.000000pt" height="1080.000000pt" viewBox="0 0 1080.000000 1080.000000"
 preserveAspectRatio="xMidYMid meet">
<metadata>
Created by potrace 1.16, written by Peter Selinger 2001-2019
</metadata>
<g transform="translate(0.000000,1080.000000) scale(0.100000,-0.100000)"
fill="#000000" stroke="none">
<path d="M7625 8583 c-506 -28 -1113 -256 -1585 -597 -445 -320 -795 -771
-1001 -1287 -274 -689 -241 -1479 90 -2137 150 -299 321 -533 571 -782 203
-203 362 -328 595 -464 515 -304 1038 -439 1635 -423 432 12 854 87 1159 207
183 72 441 207 524 274 l29 23 -155 309 c-86 170 -207 409 -269 531 l-114 222
-59 -40 c-125 -84 -321 -170 -511 -223 -220 -61 -454 -84 -691 -66 -512 37
-896 204 -1177 513 -303 334 -445 682 -446 1095 0 390 137 745 410 1063 279
324 739 525 1250 548 294 13 479 -12 741 -99 192 -64 308 -115 399 -175 41
-28 78 -51 82 -53 4 -2 126 235 272 526 245 489 264 531 248 545 -23 19 -186
127 -242 159 -122 70 -477 193 -711 247 -321 73 -697 103 -1044 84z"/>
<path d="M1320 5740 l0 -2750 630 0 630 0 0 1105 0 1105 890 0 890 0 0 323 c0
178 -3 426 -7 550 l-6 227 -884 0 -883 0 0 545 0 545 960 0 960 0 0 550 0 550
-1590 0 -1590 0 0 -2750z"/>
</g>
</svg>
